<svg data-v-423bf9ae="" xmlns="http://www.w3.org/2000/svg" viewBox="0 0 291.81549818951635 163" class="iconAbove"><!----><!----><!----><g data-v-423bf9ae="" id="fcfe66cd-fd29-4a35-a8dc-a61a38514a75" fill="black" transform="matrix(5.888125304749934,0,0,5.888125304749934,-4.180569772038723,100.35034562353954)"><path d="M3.63 3.36C1.54 3.36 0.71 4.34 0.71 6.87C0.71 9.62 1.37 10.64 3.60 10.64C4.24 10.64 5.54 10.44 5.54 10.44L5.50 9.58C5.50 9.58 4.38 9.70 3.85 9.70C2.11 9.70 1.79 8.95 1.79 6.87C1.79 5.00 2.23 4.30 3.84 4.30C4.37 4.30 5.49 4.42 5.49 4.42L5.53 3.57C5.53 3.57 4.27 3.36 3.63 3.36ZM9.72 3.36C7.50 3.36 6.72 4.51 6.72 6.92C6.72 9.46 7.36 10.64 9.72 10.64C12.08 10.64 12.71 9.46 12.71 6.92C12.71 4.51 11.94 3.36 9.72 3.36ZM9.72 9.73C8.06 9.73 7.80 8.90 7.80 6.92C7.80 4.97 8.23 4.27 9.72 4.27C11.21 4.27 11.63 4.97 11.63 6.92C11.63 8.90 11.38 9.73 9.72 9.73ZM14.50 10.50L15.55 10.50L15.55 0.45L14.50 0.45ZM17.74 10.50L18.79 10.50L18.79 0.45L17.74 0.45ZM25.83 5.61C25.83 4.09 25.16 3.36 23.58 3.36C22.37 3.36 20.83 3.67 20.83 3.67L20.87 4.47C20.87 4.47 22.54 4.28 23.52 4.28C24.36 4.28 24.78 4.63 24.78 5.61L24.78 6.22L22.58 6.43C21.14 6.57 20.44 7.15 20.44 8.50C20.44 9.91 21.14 10.64 22.41 10.64C23.67 10.64 24.93 10.08 24.93 10.08C25.35 10.50 25.86 10.64 26.60 10.64L26.64 9.81C26.19 9.76 25.86 9.60 25.83 9.20ZM24.78 7.01L24.78 9.32C24.78 9.32 23.62 9.76 22.58 9.76C21.87 9.76 21.52 9.28 21.52 8.47C21.52 7.70 21.85 7.29 22.71 7.21ZM31.00 3.36C30.00 3.36 28.94 3.85 28.94 3.85L28.94 0.45L27.90 0.45L27.90 10.49C27.90 10.49 29.40 10.64 30.24 10.64C32.79 10.64 33.54 9.67 33.54 6.89C33.54 4.37 32.90 3.36 31.00 3.36ZM30.23 9.70C29.85 9.70 28.94 9.63 28.94 9.63L28.94 4.70C28.94 4.70 29.92 4.30 30.88 4.30C32.12 4.30 32.48 5.08 32.48 6.89C32.48 8.85 32.14 9.70 30.23 9.70ZM35.35 10.50L36.40 10.50L36.40 0.45L35.35 0.45ZM38.43 10.50L39.58 10.50L39.58 8.90L38.43 8.90ZM41.52 10.50L42.57 10.50L42.57 3.50L41.52 3.50ZM41.52 1.92L42.57 1.92L42.57 0.70L41.52 0.70ZM47.28 3.36C45.07 3.36 44.28 4.51 44.28 6.92C44.28 9.46 44.93 10.64 47.28 10.64C49.64 10.64 50.27 9.46 50.27 6.92C50.27 4.51 49.50 3.36 47.28 3.36ZM47.28 9.73C45.63 9.73 45.36 8.90 45.36 6.92C45.36 4.97 45.79 4.27 47.28 4.27C48.78 4.27 49.20 4.97 49.20 6.92C49.20 8.90 48.94 9.73 47.28 9.73Z"></path></g><!----><g data-v-423bf9ae="" id="f5c88592-1cb7-4553-bb93-b4a82d6a4677" transform="matrix(11.259853671288601,0,0,11.259853671288601,55.91357096538728,-37.288429617211506)" stroke="none" fill="black"><g color="#000" white-space="normal"><g stroke-width="1.248"><path d="M8.34 6.839L9.673 9.07l1.331 2.232.136-.221 1.221-2 1.357-2.222-2.688-.01zm.535.298l2.152.008 2.152.009-1.086 1.778-1.086 1.779L9.94 8.924z" solid-color="#000000" style="font-feature-settings:normal;font-variant-alternates:normal;font-variant-caps:normal;font-variant-ligatures:normal;font-variant-numeric:normal;font-variant-position:normal;isolation:auto;mix-blend-mode:normal;shape-padding:0;text-decoration-color:#000;text-decoration-line:none;text-decoration-style:solid;text-indent:0;text-orientation:mixed;text-transform:none" paint-order="fill markers stroke"></path><path d="M10.907 6.364c.51-.73.3-1.72-.46-2.204-.76-.484-1.792-.287-2.302.444s-.303 1.72.457 2.204c.76.485 1.796.287 2.305-.444zm-.256-.163c-.414.594-1.251.756-1.875.358-.624-.397-.79-1.197-.375-1.792.415-.594 1.25-.757 1.874-.359.624.398.79 1.199.376 1.793zM10.875 8.945c.207-.011.397-.11.516-.26s.157-.338.109-.516l.293-.079c.073.27.012.56-.164.784s-.446.358-.736.374z" solid-color="#000000" style="font-feature-settings:normal;font-variant-alternates:normal;font-variant-caps:normal;font-variant-ligatures:normal;font-variant-numeric:normal;font-variant-position:normal;isolation:auto;mix-blend-mode:normal;shape-padding:0;text-decoration-color:#000;text-decoration-line:none;text-decoration-style:solid;text-indent:0;text-orientation:mixed;text-transform:none" paint-order="fill markers stroke"></path><path d="M10.235 7.922l.002.302 2.681-.062-.003-.304z" solid-color="#000000" style="font-feature-settings:normal;font-variant-alternates:normal;font-variant-caps:normal;font-variant-ligatures:normal;font-variant-numeric:normal;font-variant-position:normal;isolation:auto;mix-blend-mode:normal;shape-padding:0;text-decoration-color:#000;text-decoration-line:none;text-decoration-style:solid;text-indent:0;text-orientation:mixed;text-transform:none"></path><path d="M13.52 7.338L12.305 9.33l-1.215 1.992h.268l2.144.006 2.413.007-1.198-1.999zm-.003.592l.931 1.554.932 1.553-1.876-.004-1.876-.005.944-1.55z" solid-color="#000000" style="font-feature-settings:normal;font-variant-alternates:normal;font-variant-caps:normal;font-variant-ligatures:normal;font-variant-numeric:normal;font-variant-position:normal;isolation:auto;mix-blend-mode:normal;shape-padding:0;text-decoration-color:#000;text-decoration-line:none;text-decoration-style:solid;text-indent:0;text-orientation:mixed;text-transform:none" paint-order="fill markers stroke"></path><path d="M14.072 8.507l-.16-.253c.305-.177.422-.541.273-.837a.654.654 0 0 0-.835-.295l-.118-.273c.472-.188 1.013.003 1.232.438.22.435.045.966-.392 1.22z" solid-color="#000000" style="font-feature-settings:normal;font-variant-alternates:normal;font-variant-caps:normal;font-variant-ligatures:normal;font-variant-numeric:normal;font-variant-position:normal;isolation:auto;mix-blend-mode:normal;shape-padding:0;text-decoration-color:#000;text-decoration-line:none;text-decoration-style:solid;text-indent:0;text-orientation:mixed;text-transform:none" paint-order="fill markers stroke"></path><path d="M12.977 8.528l-.249.172 1.773 2.57.25-.17z" solid-color="#000000" style="font-feature-settings:normal;font-variant-alternates:normal;font-variant-caps:normal;font-variant-ligatures:normal;font-variant-numeric:normal;font-variant-position:normal;isolation:auto;mix-blend-mode:normal;shape-padding:0;text-decoration-color:#000;text-decoration-line:none;text-decoration-style:solid;text-indent:0;text-orientation:mixed;text-transform:none"></path><path d="M12.635 9.209l-.232.25c.29.106-.835 1.247-.815 1.544.02.297 1.452-.012 1.178.123s-.747-.166-.988-.354l-.19.23c.337.264.798.312 1.178.124.38-.187.61-.575.581-.99a1.076 1.076 0 0 0-.713-.927z" solid-color="#000000" style="font-feature-settings:normal;font-variant-alternates:normal;font-variant-caps:normal;font-variant-ligatures:normal;font-variant-numeric:normal;font-variant-position:normal;isolation:auto;mix-blend-mode:normal;shape-padding:0;text-decoration-color:#000;text-decoration-line:none;text-decoration-style:solid;text-indent:0;text-orientation:mixed;text-transform:none" paint-order="fill markers stroke"></path><g><path d="M13.517 7.93l-.54.598.355.737 1.058-.274z" solid-color="#000000" style="font-feature-settings:normal;font-variant-alternates:normal;font-variant-caps:normal;font-variant-ligatures:normal;font-variant-numeric:normal;font-variant-position:normal;isolation:auto;mix-blend-mode:normal;shape-padding:0;text-decoration-color:#000;text-decoration-line:none;text-decoration-style:solid;text-indent:0;text-orientation:mixed;text-transform:none"></path><path d="M14.235 8.729l-.904.535.155.26.903-.533zM11.896 9.68l-.811-.666-.192.234.811.667zM12.804 8.702l.363.343-.219.36-.65.253z" solid-color="#000000" style="font-feature-settings:normal;font-variant-alternates:normal;font-variant-caps:normal;font-variant-ligatures:normal;font-variant-numeric:normal;font-variant-position:normal;isolation:auto;mix-blend-mode:normal;shape-padding:0;text-decoration-color:#000;text-decoration-line:none;text-decoration-style:solid;text-indent:0;text-orientation:mixed;text-transform:none"></path></g></g><path d="M9.774 3.342c-.685.307-1.117.97-1.087 1.685.03.714.518 1.336 1.226 1.582a2.002 2.002 0 0 0 2.036-.436l-.21-.217a1.703 1.703 0 0 1-1.726.367c-.6-.209-.998-.725-1.022-1.31-.025-.585.328-1.134.908-1.395z" solid-color="#000000" style="font-feature-settings:normal;font-variant-alternates:normal;font-variant-caps:normal;font-variant-ligatures:normal;font-variant-numeric:normal;font-variant-position:normal;isolation:auto;mix-blend-mode:normal;shape-padding:0;text-decoration-color:#000;text-decoration-line:none;text-decoration-style:solid;text-indent:0;text-orientation:mixed;text-transform:none" paint-order="fill markers stroke"></path><g stroke-width="1.248"><path d="M7.68 6.84L6.347 9.07l-1.331 2.233-.136-.222-1.221-2L2.303 6.86l2.688-.01zm-.535.297l-2.152.009-2.152.008 1.086 1.779 1.086 1.778L6.08 8.924z" solid-color="#000000" style="font-feature-settings:normal;font-variant-alternates:normal;font-variant-caps:normal;font-variant-ligatures:normal;font-variant-numeric:normal;font-variant-position:normal;isolation:auto;mix-blend-mode:normal;shape-padding:0;text-decoration-color:#000;text-decoration-line:none;text-decoration-style:solid;text-indent:0;text-orientation:mixed;text-transform:none" paint-order="fill markers stroke"></path><path d="M5.113 6.364c-.51-.73-.3-1.719.46-2.203.76-.484 1.792-.287 2.302.444.51.73.303 1.72-.457 2.204-.76.484-1.796.286-2.305-.444zm.256-.163c.414.595 1.251.756 1.875.359.624-.398.79-1.198.375-1.792-.415-.595-1.25-.757-1.874-.36-.624.398-.79 1.199-.376 1.793zM5.145 8.946c-.207-.012-.397-.11-.516-.26s-.157-.339-.109-.516l-.293-.08c-.073.271-.012.561.164.784s.446.359.736.375z" solid-color="#000000" style="font-feature-settings:normal;font-variant-alternates:normal;font-variant-caps:normal;font-variant-ligatures:normal;font-variant-numeric:normal;font-variant-position:normal;isolation:auto;mix-blend-mode:normal;shape-padding:0;text-decoration-color:#000;text-decoration-line:none;text-decoration-style:solid;text-indent:0;text-orientation:mixed;text-transform:none" paint-order="fill markers stroke"></path><path d="M5.785 7.923l-.002.302-2.681-.063.003-.303z" solid-color="#000000" style="font-feature-settings:normal;font-variant-alternates:normal;font-variant-caps:normal;font-variant-ligatures:normal;font-variant-numeric:normal;font-variant-position:normal;isolation:auto;mix-blend-mode:normal;shape-padding:0;text-decoration-color:#000;text-decoration-line:none;text-decoration-style:solid;text-indent:0;text-orientation:mixed;text-transform:none"></path><path d="M2.5 7.338L3.715 9.33l1.215 1.992-.268.001-2.144.006-2.413.006 1.198-1.998zm.003.592l-.931 1.554-.932 1.554 1.876-.005 1.876-.005-.944-1.549z" solid-color="#000000" style="font-feature-settings:normal;font-variant-alternates:normal;font-variant-caps:normal;font-variant-ligatures:normal;font-variant-numeric:normal;font-variant-position:normal;isolation:auto;mix-blend-mode:normal;shape-padding:0;text-decoration-color:#000;text-decoration-line:none;text-decoration-style:solid;text-indent:0;text-orientation:mixed;text-transform:none" paint-order="fill markers stroke"></path><path d="M1.948 8.507l.16-.253c-.305-.177-.422-.54-.273-.837a.654.654 0 0 1 .835-.295l.118-.273c-.472-.187-1.013.003-1.232.438-.22.436-.045.966.392 1.22z" solid-color="#000000" style="font-feature-settings:normal;font-variant-alternates:normal;font-variant-caps:normal;font-variant-ligatures:normal;font-variant-numeric:normal;font-variant-position:normal;isolation:auto;mix-blend-mode:normal;shape-padding:0;text-decoration-color:#000;text-decoration-line:none;text-decoration-style:solid;text-indent:0;text-orientation:mixed;text-transform:none" paint-order="fill markers stroke"></path><path d="M3.043 8.529l.249.171-1.773 2.571-.25-.171z" solid-color="#000000" style="font-feature-settings:normal;font-variant-alternates:normal;font-variant-caps:normal;font-variant-ligatures:normal;font-variant-numeric:normal;font-variant-position:normal;isolation:auto;mix-blend-mode:normal;shape-padding:0;text-decoration-color:#000;text-decoration-line:none;text-decoration-style:solid;text-indent:0;text-orientation:mixed;text-transform:none"></path><path d="M3.385 9.21l.232.25c-.29.105.835 1.246.815 1.543-.02.297-1.452-.011-1.178.124s.747-.166.988-.355l.19.231c-.337.263-.798.311-1.178.124a1.028 1.028 0 0 1-.581-.99c.028-.416.31-.78.713-.928z" solid-color="#000000" style="font-feature-settings:normal;font-variant-alternates:normal;font-variant-caps:normal;font-variant-ligatures:normal;font-variant-numeric:normal;font-variant-position:normal;isolation:auto;mix-blend-mode:normal;shape-padding:0;text-decoration-color:#000;text-decoration-line:none;text-decoration-style:solid;text-indent:0;text-orientation:mixed;text-transform:none" paint-order="fill markers stroke"></path><g><path d="M2.503 7.93l.54.599-.355.736-1.058-.273z" solid-color="#000000" style="font-feature-settings:normal;font-variant-alternates:normal;font-variant-caps:normal;font-variant-ligatures:normal;font-variant-numeric:normal;font-variant-position:normal;isolation:auto;mix-blend-mode:normal;shape-padding:0;text-decoration-color:#000;text-decoration-line:none;text-decoration-style:solid;text-indent:0;text-orientation:mixed;text-transform:none"></path><path d="M1.785 8.73l.904.535-.155.26-.903-.534zM4.124 9.681l.811-.666.192.234-.811.666zM3.216 8.702l-.363.343.219.36.65.254z" solid-color="#000000" style="font-feature-settings:normal;font-variant-alternates:normal;font-variant-caps:normal;font-variant-ligatures:normal;font-variant-numeric:normal;font-variant-position:normal;isolation:auto;mix-blend-mode:normal;shape-padding:0;text-decoration-color:#000;text-decoration-line:none;text-decoration-style:solid;text-indent:0;text-orientation:mixed;text-transform:none"></path></g></g></g><g color="#000" white-space="normal"><path d="M4.535 4.702c.757-.205 1.574-.038 2.066.43.492.469.56 1.144.184 1.712-.377.567-1.123.925-1.908.91l.009-.26c.657.013 1.295-.291 1.614-.772.319-.481.257-1.038-.146-1.422-.403-.383-1.075-.524-1.717-.35z" solid-color="#000000" style="font-feature-settings:normal;font-variant-alternates:normal;font-variant-caps:normal;font-variant-ligatures:normal;font-variant-numeric:normal;font-variant-position:normal;isolation:auto;mix-blend-mode:normal;shape-padding:0;text-decoration-color:#000;text-decoration-line:none;text-decoration-style:solid;text-indent:0;text-orientation:mixed;text-transform:none" paint-order="fill markers stroke"></path><g><path d="M4.732 7.998c-.123.131-.593.176-.333.275.151.787.18 1.321 1.64 1.1l.215-.703z" solid-color="#000000" style="font-feature-settings:normal;font-variant-alternates:normal;font-variant-caps:normal;font-variant-ligatures:normal;font-variant-numeric:normal;font-variant-position:normal;isolation:auto;mix-blend-mode:normal;shape-padding:0;text-decoration-color:#000;text-decoration-line:none;text-decoration-style:solid;text-indent:0;text-orientation:mixed;text-transform:none"></path><path d="M4.61 9.35l-.006.1 1.242.071.006-.1c-.42-.12-.842-.288-1.243-.071zM1.555 9.145l-.254.43.82.484.254-.432zM1.18 9.707l-.254.43.82.484L2 10.19z" solid-color="#000000" style="font-feature-settings:normal;font-variant-alternates:normal;font-variant-caps:normal;font-variant-ligatures:normal;font-variant-numeric:normal;font-variant-position:normal;isolation:auto;mix-blend-mode:normal;shape-padding:0;text-decoration-color:#000;text-decoration-line:none;text-decoration-style:solid;text-indent:0;text-orientation:mixed;text-transform:none"></path></g></g></g><!----></svg>