<svg data-v-423bf9ae="" xmlns="http://www.w3.org/2000/svg" viewBox="0 0 291.81549818951635 60" class="font"><!----><!----><!----><g data-v-423bf9ae="" id="a1ebcb89-e247-47ec-9e2b-1d8576299c42" fill="black" transform="matrix(5.888125304749934,0,0,5.888125304749934,-4.180569772038723,-2.649656283809101)"><path d="M3.63 3.36C1.54 3.36 0.71 4.34 0.71 6.87C0.71 9.62 1.37 10.64 3.60 10.64C4.24 10.64 5.54 10.44 5.54 10.44L5.50 9.58C5.50 9.58 4.38 9.70 3.85 9.70C2.11 9.70 1.79 8.95 1.79 6.87C1.79 5.00 2.23 4.30 3.84 4.30C4.37 4.30 5.49 4.42 5.49 4.42L5.53 3.57C5.53 3.57 4.27 3.36 3.63 3.36ZM9.72 3.36C7.50 3.36 6.72 4.51 6.72 6.92C6.72 9.46 7.36 10.64 9.72 10.64C12.08 10.64 12.71 9.46 12.71 6.92C12.71 4.51 11.94 3.36 9.72 3.36ZM9.72 9.73C8.06 9.73 7.80 8.90 7.80 6.92C7.80 4.97 8.23 4.27 9.72 4.27C11.21 4.27 11.63 4.97 11.63 6.92C11.63 8.90 11.38 9.73 9.72 9.73ZM14.50 10.50L15.55 10.50L15.55 0.45L14.50 0.45ZM17.74 10.50L18.79 10.50L18.79 0.45L17.74 0.45ZM25.83 5.61C25.83 4.09 25.16 3.36 23.58 3.36C22.37 3.36 20.83 3.67 20.83 3.67L20.87 4.47C20.87 4.47 22.54 4.28 23.52 4.28C24.36 4.28 24.78 4.63 24.78 5.61L24.78 6.22L22.58 6.43C21.14 6.57 20.44 7.15 20.44 8.50C20.44 9.91 21.14 10.64 22.41 10.64C23.67 10.64 24.93 10.08 24.93 10.08C25.35 10.50 25.86 10.64 26.60 10.64L26.64 9.81C26.19 9.76 25.86 9.60 25.83 9.20ZM24.78 7.01L24.78 9.32C24.78 9.32 23.62 9.76 22.58 9.76C21.87 9.76 21.52 9.28 21.52 8.47C21.52 7.70 21.85 7.29 22.71 7.21ZM31.00 3.36C30.00 3.36 28.94 3.85 28.94 3.85L28.94 0.45L27.90 0.45L27.90 10.49C27.90 10.49 29.40 10.64 30.24 10.64C32.79 10.64 33.54 9.67 33.54 6.89C33.54 4.37 32.90 3.36 31.00 3.36ZM30.23 9.70C29.85 9.70 28.94 9.63 28.94 9.63L28.94 4.70C28.94 4.70 29.92 4.30 30.88 4.30C32.12 4.30 32.48 5.08 32.48 6.89C32.48 8.85 32.14 9.70 30.23 9.70ZM35.35 10.50L36.40 10.50L36.40 0.45L35.35 0.45ZM38.43 10.50L39.58 10.50L39.58 8.90L38.43 8.90ZM41.52 10.50L42.57 10.50L42.57 3.50L41.52 3.50ZM41.52 1.92L42.57 1.92L42.57 0.70L41.52 0.70ZM47.28 3.36C45.07 3.36 44.28 4.51 44.28 6.92C44.28 9.46 44.93 10.64 47.28 10.64C49.64 10.64 50.27 9.46 50.27 6.92C50.27 4.51 49.50 3.36 47.28 3.36ZM47.28 9.73C45.63 9.73 45.36 8.90 45.36 6.92C45.36 4.97 45.79 4.27 47.28 4.27C48.78 4.27 49.20 4.97 49.20 6.92C49.20 8.90 48.94 9.73 47.28 9.73Z"></path></g><!----><!----></svg>