<svg data-v-fde0c5aa="" xmlns="http://www.w3.org/2000/svg" viewBox="0 0 300 300" class="iconAbove"><!---->
    <defs data-v-fde0c5aa=""><!----></defs>
    <rect data-v-fde0c5aa="" fill="#1c2540" x="0" y="0" width="300px" height="300px"
          class="logo-background-square"></rect>
    <defs data-v-fde0c5aa=""><!----></defs>
    <defs data-v-fde0c5aa=""><!----></defs>
    <g data-v-fde0c5aa="" id="f5c3bfd7-39f1-41cb-a62a-db6bc35deb94" stroke="none" fill="#893168"
       transform="matrix(13.376314704317105,0,0,13.376314704317105,42.85571615682453,16.10870284374038)">
        <g color="#000" white-space="normal">
            <g stroke-width="1.248">
                <path d="M8.34 6.839L9.673 9.07l1.331 2.232.136-.221 1.221-2 1.357-2.222-2.688-.01zm.535.298l2.152.008 2.152.009-1.086 1.778-1.086 1.779L9.94 8.924z"
                      solid-color="#000000"
                      style="font-feature-settings:normal;font-variant-alternates:normal;font-variant-caps:normal;font-variant-ligatures:normal;font-variant-numeric:normal;font-variant-position:normal;isolation:auto;mix-blend-mode:normal;shape-padding:0;text-decoration-color:#000;text-decoration-line:none;text-decoration-style:solid;text-indent:0;text-orientation:mixed;text-transform:none"
                      paint-order="fill markers stroke"></path>
                <path d="M10.907 6.364c.51-.73.3-1.72-.46-2.204-.76-.484-1.792-.287-2.302.444s-.303 1.72.457 2.204c.76.485 1.796.287 2.305-.444zm-.256-.163c-.414.594-1.251.756-1.875.358-.624-.397-.79-1.197-.375-1.792.415-.594 1.25-.757 1.874-.359.624.398.79 1.199.376 1.793zM10.875 8.945c.207-.011.397-.11.516-.26s.157-.338.109-.516l.293-.079c.073.27.012.56-.164.784s-.446.358-.736.374z"
                      solid-color="#000000"
                      style="font-feature-settings:normal;font-variant-alternates:normal;font-variant-caps:normal;font-variant-ligatures:normal;font-variant-numeric:normal;font-variant-position:normal;isolation:auto;mix-blend-mode:normal;shape-padding:0;text-decoration-color:#000;text-decoration-line:none;text-decoration-style:solid;text-indent:0;text-orientation:mixed;text-transform:none"
                      paint-order="fill markers stroke"></path>
                <path d="M10.235 7.922l.002.302 2.681-.062-.003-.304z" solid-color="#000000"
                      style="font-feature-settings:normal;font-variant-alternates:normal;font-variant-caps:normal;font-variant-ligatures:normal;font-variant-numeric:normal;font-variant-position:normal;isolation:auto;mix-blend-mode:normal;shape-padding:0;text-decoration-color:#000;text-decoration-line:none;text-decoration-style:solid;text-indent:0;text-orientation:mixed;text-transform:none"></path>
                <path d="M13.52 7.338L12.305 9.33l-1.215 1.992h.268l2.144.006 2.413.007-1.198-1.999zm-.003.592l.931 1.554.932 1.553-1.876-.004-1.876-.005.944-1.55z"
                      solid-color="#000000"
                      style="font-feature-settings:normal;font-variant-alternates:normal;font-variant-caps:normal;font-variant-ligatures:normal;font-variant-numeric:normal;font-variant-position:normal;isolation:auto;mix-blend-mode:normal;shape-padding:0;text-decoration-color:#000;text-decoration-line:none;text-decoration-style:solid;text-indent:0;text-orientation:mixed;text-transform:none"
                      paint-order="fill markers stroke"></path>
                <path d="M14.072 8.507l-.16-.253c.305-.177.422-.541.273-.837a.654.654 0 0 0-.835-.295l-.118-.273c.472-.188 1.013.003 1.232.438.22.435.045.966-.392 1.22z"
                      solid-color="#000000"
                      style="font-feature-settings:normal;font-variant-alternates:normal;font-variant-caps:normal;font-variant-ligatures:normal;font-variant-numeric:normal;font-variant-position:normal;isolation:auto;mix-blend-mode:normal;shape-padding:0;text-decoration-color:#000;text-decoration-line:none;text-decoration-style:solid;text-indent:0;text-orientation:mixed;text-transform:none"
                      paint-order="fill markers stroke"></path>
                <path d="M12.977 8.528l-.249.172 1.773 2.57.25-.17z" solid-color="#000000"
                      style="font-feature-settings:normal;font-variant-alternates:normal;font-variant-caps:normal;font-variant-ligatures:normal;font-variant-numeric:normal;font-variant-position:normal;isolation:auto;mix-blend-mode:normal;shape-padding:0;text-decoration-color:#000;text-decoration-line:none;text-decoration-style:solid;text-indent:0;text-orientation:mixed;text-transform:none"></path>
                <path d="M12.635 9.209l-.232.25c.29.106-.835 1.247-.815 1.544.02.297 1.452-.012 1.178.123s-.747-.166-.988-.354l-.19.23c.337.264.798.312 1.178.124.38-.187.61-.575.581-.99a1.076 1.076 0 0 0-.713-.927z"
                      solid-color="#000000"
                      style="font-feature-settings:normal;font-variant-alternates:normal;font-variant-caps:normal;font-variant-ligatures:normal;font-variant-numeric:normal;font-variant-position:normal;isolation:auto;mix-blend-mode:normal;shape-padding:0;text-decoration-color:#000;text-decoration-line:none;text-decoration-style:solid;text-indent:0;text-orientation:mixed;text-transform:none"
                      paint-order="fill markers stroke"></path>
                <g>
                    <path d="M13.517 7.93l-.54.598.355.737 1.058-.274z" solid-color="#000000"
                          style="font-feature-settings:normal;font-variant-alternates:normal;font-variant-caps:normal;font-variant-ligatures:normal;font-variant-numeric:normal;font-variant-position:normal;isolation:auto;mix-blend-mode:normal;shape-padding:0;text-decoration-color:#000;text-decoration-line:none;text-decoration-style:solid;text-indent:0;text-orientation:mixed;text-transform:none"></path>
                    <path d="M14.235 8.729l-.904.535.155.26.903-.533zM11.896 9.68l-.811-.666-.192.234.811.667zM12.804 8.702l.363.343-.219.36-.65.253z"
                          solid-color="#000000"
                          style="font-feature-settings:normal;font-variant-alternates:normal;font-variant-caps:normal;font-variant-ligatures:normal;font-variant-numeric:normal;font-variant-position:normal;isolation:auto;mix-blend-mode:normal;shape-padding:0;text-decoration-color:#000;text-decoration-line:none;text-decoration-style:solid;text-indent:0;text-orientation:mixed;text-transform:none"></path>
                </g>
            </g>
            <path d="M9.774 3.342c-.685.307-1.117.97-1.087 1.685.03.714.518 1.336 1.226 1.582a2.002 2.002 0 0 0 2.036-.436l-.21-.217a1.703 1.703 0 0 1-1.726.367c-.6-.209-.998-.725-1.022-1.31-.025-.585.328-1.134.908-1.395z"
                  solid-color="#000000"
                  style="font-feature-settings:normal;font-variant-alternates:normal;font-variant-caps:normal;font-variant-ligatures:normal;font-variant-numeric:normal;font-variant-position:normal;isolation:auto;mix-blend-mode:normal;shape-padding:0;text-decoration-color:#000;text-decoration-line:none;text-decoration-style:solid;text-indent:0;text-orientation:mixed;text-transform:none"
                  paint-order="fill markers stroke"></path>
            <g stroke-width="1.248">
                <path d="M7.68 6.84L6.347 9.07l-1.331 2.233-.136-.222-1.221-2L2.303 6.86l2.688-.01zm-.535.297l-2.152.009-2.152.008 1.086 1.779 1.086 1.778L6.08 8.924z"
                      solid-color="#000000"
                      style="font-feature-settings:normal;font-variant-alternates:normal;font-variant-caps:normal;font-variant-ligatures:normal;font-variant-numeric:normal;font-variant-position:normal;isolation:auto;mix-blend-mode:normal;shape-padding:0;text-decoration-color:#000;text-decoration-line:none;text-decoration-style:solid;text-indent:0;text-orientation:mixed;text-transform:none"
                      paint-order="fill markers stroke"></path>
                <path d="M5.113 6.364c-.51-.73-.3-1.719.46-2.203.76-.484 1.792-.287 2.302.444.51.73.303 1.72-.457 2.204-.76.484-1.796.286-2.305-.444zm.256-.163c.414.595 1.251.756 1.875.359.624-.398.79-1.198.375-1.792-.415-.595-1.25-.757-1.874-.36-.624.398-.79 1.199-.376 1.793zM5.145 8.946c-.207-.012-.397-.11-.516-.26s-.157-.339-.109-.516l-.293-.08c-.073.271-.012.561.164.784s.446.359.736.375z"
                      solid-color="#000000"
                      style="font-feature-settings:normal;font-variant-alternates:normal;font-variant-caps:normal;font-variant-ligatures:normal;font-variant-numeric:normal;font-variant-position:normal;isolation:auto;mix-blend-mode:normal;shape-padding:0;text-decoration-color:#000;text-decoration-line:none;text-decoration-style:solid;text-indent:0;text-orientation:mixed;text-transform:none"
                      paint-order="fill markers stroke"></path>
                <path d="M5.785 7.923l-.002.302-2.681-.063.003-.303z" solid-color="#000000"
                      style="font-feature-settings:normal;font-variant-alternates:normal;font-variant-caps:normal;font-variant-ligatures:normal;font-variant-numeric:normal;font-variant-position:normal;isolation:auto;mix-blend-mode:normal;shape-padding:0;text-decoration-color:#000;text-decoration-line:none;text-decoration-style:solid;text-indent:0;text-orientation:mixed;text-transform:none"></path>
                <path d="M2.5 7.338L3.715 9.33l1.215 1.992-.268.001-2.144.006-2.413.006 1.198-1.998zm.003.592l-.931 1.554-.932 1.554 1.876-.005 1.876-.005-.944-1.549z"
                      solid-color="#000000"
                      style="font-feature-settings:normal;font-variant-alternates:normal;font-variant-caps:normal;font-variant-ligatures:normal;font-variant-numeric:normal;font-variant-position:normal;isolation:auto;mix-blend-mode:normal;shape-padding:0;text-decoration-color:#000;text-decoration-line:none;text-decoration-style:solid;text-indent:0;text-orientation:mixed;text-transform:none"
                      paint-order="fill markers stroke"></path>
                <path d="M1.948 8.507l.16-.253c-.305-.177-.422-.54-.273-.837a.654.654 0 0 1 .835-.295l.118-.273c-.472-.187-1.013.003-1.232.438-.22.436-.045.966.392 1.22z"
                      solid-color="#000000"
                      style="font-feature-settings:normal;font-variant-alternates:normal;font-variant-caps:normal;font-variant-ligatures:normal;font-variant-numeric:normal;font-variant-position:normal;isolation:auto;mix-blend-mode:normal;shape-padding:0;text-decoration-color:#000;text-decoration-line:none;text-decoration-style:solid;text-indent:0;text-orientation:mixed;text-transform:none"
                      paint-order="fill markers stroke"></path>
                <path d="M3.043 8.529l.249.171-1.773 2.571-.25-.171z" solid-color="#000000"
                      style="font-feature-settings:normal;font-variant-alternates:normal;font-variant-caps:normal;font-variant-ligatures:normal;font-variant-numeric:normal;font-variant-position:normal;isolation:auto;mix-blend-mode:normal;shape-padding:0;text-decoration-color:#000;text-decoration-line:none;text-decoration-style:solid;text-indent:0;text-orientation:mixed;text-transform:none"></path>
                <path d="M3.385 9.21l.232.25c-.29.105.835 1.246.815 1.543-.02.297-1.452-.011-1.178.124s.747-.166.988-.355l.19.231c-.337.263-.798.311-1.178.124a1.028 1.028 0 0 1-.581-.99c.028-.416.31-.78.713-.928z"
                      solid-color="#000000"
                      style="font-feature-settings:normal;font-variant-alternates:normal;font-variant-caps:normal;font-variant-ligatures:normal;font-variant-numeric:normal;font-variant-position:normal;isolation:auto;mix-blend-mode:normal;shape-padding:0;text-decoration-color:#000;text-decoration-line:none;text-decoration-style:solid;text-indent:0;text-orientation:mixed;text-transform:none"
                      paint-order="fill markers stroke"></path>
                <g>
                    <path d="M2.503 7.93l.54.599-.355.736-1.058-.273z" solid-color="#000000"
                          style="font-feature-settings:normal;font-variant-alternates:normal;font-variant-caps:normal;font-variant-ligatures:normal;font-variant-numeric:normal;font-variant-position:normal;isolation:auto;mix-blend-mode:normal;shape-padding:0;text-decoration-color:#000;text-decoration-line:none;text-decoration-style:solid;text-indent:0;text-orientation:mixed;text-transform:none"></path>
                    <path d="M1.785 8.73l.904.535-.155.26-.903-.534zM4.124 9.681l.811-.666.192.234-.811.666zM3.216 8.702l-.363.343.219.36.65.254z"
                          solid-color="#000000"
                          style="font-feature-settings:normal;font-variant-alternates:normal;font-variant-caps:normal;font-variant-ligatures:normal;font-variant-numeric:normal;font-variant-position:normal;isolation:auto;mix-blend-mode:normal;shape-padding:0;text-decoration-color:#000;text-decoration-line:none;text-decoration-style:solid;text-indent:0;text-orientation:mixed;text-transform:none"></path>
                </g>
            </g>
        </g>
        <g color="#000" white-space="normal">
            <path d="M4.535 4.702c.757-.205 1.574-.038 2.066.43.492.469.56 1.144.184 1.712-.377.567-1.123.925-1.908.91l.009-.26c.657.013 1.295-.291 1.614-.772.319-.481.257-1.038-.146-1.422-.403-.383-1.075-.524-1.717-.35z"
                  solid-color="#000000"
                  style="font-feature-settings:normal;font-variant-alternates:normal;font-variant-caps:normal;font-variant-ligatures:normal;font-variant-numeric:normal;font-variant-position:normal;isolation:auto;mix-blend-mode:normal;shape-padding:0;text-decoration-color:#000;text-decoration-line:none;text-decoration-style:solid;text-indent:0;text-orientation:mixed;text-transform:none"
                  paint-order="fill markers stroke"></path>
            <g>
                <path d="M4.732 7.998c-.123.131-.593.176-.333.275.151.787.18 1.321 1.64 1.1l.215-.703z"
                      solid-color="#000000"
                      style="font-feature-settings:normal;font-variant-alternates:normal;font-variant-caps:normal;font-variant-ligatures:normal;font-variant-numeric:normal;font-variant-position:normal;isolation:auto;mix-blend-mode:normal;shape-padding:0;text-decoration-color:#000;text-decoration-line:none;text-decoration-style:solid;text-indent:0;text-orientation:mixed;text-transform:none"></path>
                <path d="M4.61 9.35l-.006.1 1.242.071.006-.1c-.42-.12-.842-.288-1.243-.071zM1.555 9.145l-.254.43.82.484.254-.432zM1.18 9.707l-.254.43.82.484L2 10.19z"
                      solid-color="#000000"
                      style="font-feature-settings:normal;font-variant-alternates:normal;font-variant-caps:normal;font-variant-ligatures:normal;font-variant-numeric:normal;font-variant-position:normal;isolation:auto;mix-blend-mode:normal;shape-padding:0;text-decoration-color:#000;text-decoration-line:none;text-decoration-style:solid;text-indent:0;text-orientation:mixed;text-transform:none"></path>
            </g>
        </g>
    </g><!---->
</svg>