<?xml version="1.0" encoding="UTF-8"?><svg xmlns="http://www.w3.org/2000/svg" xmlns:xlink="http://www.w3.org/1999/xlink" contentScriptType="text/ecmascript" width="375" zoomAndPan="magnify" contentStyleType="text/css" viewBox="0 0 375 374.999991" height="374.999991" preserveAspectRatio="xMidYMid meet" version="1.0"><path fill="rgb(100%, 100%, 100%)" d="M 340.230469 38.460938 L 70.34375 38.460938 C 69.3125 38.460938 68.296875 38.558594 67.285156 38.757812 C 66.277344 38.960938 65.296875 39.257812 64.347656 39.648438 C 63.398438 40.042969 62.492188 40.523438 61.640625 41.097656 C 60.785156 41.667969 59.992188 42.316406 59.265625 43.042969 C 58.535156 43.769531 57.886719 44.5625 57.316406 45.417969 C 56.746094 46.273438 56.261719 47.175781 55.867188 48.125 C 55.472656 49.074219 55.175781 50.054688 54.976562 51.0625 C 54.773438 52.074219 54.675781 53.089844 54.675781 54.121094 L 54.675781 210.074219 L 19.109375 240.074219 L 206.851562 240.074219 C 208.574219 240.078125 210.292969 239.992188 212.007812 239.824219 C 213.722656 239.65625 215.425781 239.40625 217.113281 239.070312 C 218.804688 238.738281 220.476562 238.320312 222.125 237.820312 C 223.773438 237.320312 225.394531 236.742188 226.988281 236.085938 C 228.578125 235.425781 230.136719 234.691406 231.65625 233.878906 C 233.175781 233.070312 234.652344 232.183594 236.085938 231.230469 C 237.519531 230.273438 238.902344 229.25 240.234375 228.15625 C 241.566406 227.0625 242.84375 225.910156 244.0625 224.691406 C 245.28125 223.472656 246.441406 222.199219 247.535156 220.867188 C 248.628906 219.539062 249.652344 218.15625 250.613281 216.722656 C 251.570312 215.292969 252.457031 213.816406 253.269531 212.296875 C 254.082031 210.777344 254.820312 209.222656 255.480469 207.632812 C 256.140625 206.039062 256.722656 204.417969 257.222656 202.769531 C 257.726562 201.121094 258.144531 199.453125 258.480469 197.761719 C 258.820312 196.074219 259.074219 194.371094 259.242188 192.65625 C 259.414062 190.941406 259.5 189.222656 259.5 187.5 C 259.5 185.777344 259.414062 184.058594 259.246094 182.34375 C 259.078125 180.628906 258.824219 178.925781 258.488281 177.238281 C 258.152344 175.546875 257.734375 173.878906 257.234375 172.230469 C 256.730469 170.582031 256.152344 168.960938 255.492188 167.367188 C 254.832031 165.777344 254.097656 164.222656 253.285156 162.703125 C 252.472656 161.183594 251.589844 159.707031 250.628906 158.273438 C 249.671875 156.839844 248.648438 155.460938 247.554688 154.128906 C 246.460938 152.796875 245.304688 151.519531 244.085938 150.300781 C 242.867188 149.082031 241.59375 147.929688 240.261719 146.835938 C 238.929688 145.742188 237.546875 144.71875 236.113281 143.761719 C 234.683594 142.804688 233.207031 141.917969 231.6875 141.105469 C 230.167969 140.292969 228.613281 139.558594 227.019531 138.898438 C 225.429688 138.238281 223.808594 137.660156 222.160156 137.160156 C 220.511719 136.660156 218.839844 136.242188 217.152344 135.90625 C 215.460938 135.570312 213.757812 135.316406 212.042969 135.148438 C 210.328125 134.980469 208.609375 134.894531 206.886719 134.894531 L 122.25 134.894531 L 154.246094 164.429688 L 154.246094 217.957031 L 86.566406 217.957031 L 86.566406 67.207031 L 206.851562 67.207031 C 208.820312 67.207031 210.785156 67.253906 212.753906 67.351562 C 214.71875 67.449219 216.679688 67.59375 218.640625 67.785156 C 220.601562 67.980469 222.554688 68.21875 224.5 68.507812 C 226.449219 68.796875 228.386719 69.136719 230.316406 69.519531 C 232.25 69.902344 234.167969 70.335938 236.078125 70.8125 C 237.988281 71.289062 239.886719 71.816406 241.769531 72.386719 C 243.652344 72.957031 245.523438 73.574219 247.375 74.238281 C 249.230469 74.902344 251.066406 75.609375 252.882812 76.363281 C 254.703125 77.117188 256.503906 77.914062 258.28125 78.757812 C 260.0625 79.597656 261.820312 80.484375 263.554688 81.410156 C 265.292969 82.339844 267.003906 83.308594 268.691406 84.320312 C 270.382812 85.332031 272.042969 86.386719 273.679688 87.480469 C 275.316406 88.574219 276.925781 89.707031 278.507812 90.878906 C 280.089844 92.054688 281.640625 93.265625 283.164062 94.511719 C 284.683594 95.761719 286.175781 97.046875 287.632812 98.367188 C 289.09375 99.691406 290.515625 101.046875 291.910156 102.441406 C 293.300781 103.832031 294.660156 105.257812 295.980469 106.714844 C 297.304688 108.175781 298.589844 109.664062 299.835938 111.1875 C 301.085938 112.710938 302.296875 114.261719 303.46875 115.84375 C 304.640625 117.421875 305.777344 119.03125 306.871094 120.667969 C 307.964844 122.304688 309.015625 123.96875 310.027344 125.65625 C 311.039062 127.347656 312.011719 129.058594 312.9375 130.792969 C 313.867188 132.53125 314.75 134.289062 315.59375 136.066406 C 316.433594 137.847656 317.230469 139.648438 317.984375 141.464844 C 318.738281 143.285156 319.449219 145.121094 320.109375 146.976562 C 320.773438 148.828125 321.390625 150.695312 321.960938 152.582031 C 322.535156 154.464844 323.058594 156.363281 323.539062 158.269531 C 324.015625 160.179688 324.445312 162.101562 324.832031 164.03125 C 325.214844 165.964844 325.550781 167.902344 325.839844 169.847656 C 326.128906 171.796875 326.371094 173.75 326.5625 175.710938 C 326.757812 177.667969 326.902344 179.632812 326.996094 181.597656 C 327.09375 183.5625 327.140625 185.53125 327.140625 187.5 C 327.140625 189.46875 327.09375 191.4375 326.996094 193.402344 C 326.902344 195.367188 326.757812 197.332031 326.5625 199.289062 C 326.371094 201.25 326.128906 203.203125 325.839844 205.152344 C 325.550781 207.097656 325.214844 209.035156 324.832031 210.96875 C 324.445312 212.898438 324.015625 214.820312 323.539062 216.730469 C 323.058594 218.636719 322.535156 220.535156 321.960938 222.417969 C 321.390625 224.304688 320.773438 226.171875 320.109375 228.023438 C 319.449219 229.878906 318.738281 231.714844 317.984375 233.535156 C 317.230469 235.351562 316.433594 237.152344 315.59375 238.933594 C 314.75 240.710938 313.867188 242.46875 312.9375 244.207031 C 312.011719 245.941406 311.039062 247.652344 310.027344 249.34375 C 309.015625 251.03125 307.964844 252.695312 306.871094 254.332031 C 305.777344 255.96875 304.640625 257.578125 303.46875 259.15625 C 302.296875 260.738281 301.085938 262.289062 299.835938 263.8125 C 298.589844 265.335938 297.304688 266.824219 295.980469 268.285156 C 294.660156 269.742188 293.300781 271.167969 291.910156 272.558594 C 290.519531 273.953125 289.09375 275.308594 287.632812 276.632812 C 286.175781 277.953125 284.683594 279.238281 283.164062 280.488281 C 281.640625 281.734375 280.089844 282.945312 278.507812 284.121094 C 276.925781 285.292969 275.316406 286.425781 273.679688 287.519531 C 272.042969 288.613281 270.382812 289.667969 268.691406 290.679688 C 267.003906 291.691406 265.292969 292.660156 263.554688 293.589844 C 261.820312 294.515625 260.0625 295.402344 258.28125 296.242188 C 256.503906 297.085938 254.703125 297.882812 252.882812 298.636719 C 251.066406 299.390625 249.230469 300.097656 247.375 300.761719 C 245.523438 301.425781 243.652344 302.042969 241.769531 302.613281 C 239.886719 303.183594 237.988281 303.710938 236.078125 304.1875 C 234.167969 304.664062 232.25 305.097656 230.316406 305.480469 C 228.386719 305.863281 226.449219 306.203125 224.5 306.492188 C 222.554688 306.78125 220.601562 307.019531 218.640625 307.214844 C 216.679688 307.40625 214.71875 307.550781 212.753906 307.648438 C 210.785156 307.746094 208.820312 307.792969 206.851562 307.792969 L 54.675781 307.792969 L 54.675781 320.878906 C 54.675781 321.910156 54.773438 322.925781 54.976562 323.9375 C 55.175781 324.945312 55.472656 325.925781 55.867188 326.875 C 56.261719 327.824219 56.742188 328.726562 57.316406 329.582031 C 57.886719 330.4375 58.535156 331.230469 59.265625 331.957031 C 59.992188 332.683594 60.785156 333.332031 61.636719 333.902344 C 62.492188 334.476562 63.398438 334.957031 64.347656 335.351562 C 65.296875 335.742188 66.277344 336.039062 67.285156 336.242188 C 68.296875 336.441406 69.3125 336.539062 70.34375 336.539062 L 340.230469 336.539062 C 341.257812 336.539062 342.277344 336.441406 343.285156 336.238281 C 344.292969 336.039062 345.273438 335.742188 346.222656 335.347656 C 347.171875 334.953125 348.074219 334.472656 348.929688 333.902344 C 349.785156 333.328125 350.578125 332.679688 351.304688 331.953125 C 352.03125 331.226562 352.679688 330.433594 353.25 329.582031 C 353.820312 328.726562 354.304688 327.824219 354.699219 326.871094 C 355.089844 325.921875 355.386719 324.945312 355.589844 323.933594 C 355.789062 322.925781 355.890625 321.910156 355.890625 320.878906 L 355.890625 54.121094 C 355.890625 53.089844 355.789062 52.074219 355.589844 51.066406 C 355.386719 50.054688 355.089844 49.078125 354.699219 48.128906 C 354.304688 47.175781 353.820312 46.273438 353.25 45.417969 C 352.679688 44.566406 352.03125 43.773438 351.304688 43.046875 C 350.578125 42.320312 349.785156 41.671875 348.929688 41.097656 C 348.074219 40.527344 347.171875 40.046875 346.222656 39.652344 C 345.273438 39.257812 344.292969 38.960938 343.285156 38.761719 C 342.277344 38.558594 341.257812 38.460938 340.230469 38.460938 Z M 340.230469 38.460938 " fill-opacity="1" fill-rule="nonzero"/></svg>